<mxfile host="app.diagrams.net" modified="2023-02-26T17:54:47.690Z" agent="5.0 (Macintosh; Intel Mac OS X 10_15_7) AppleWebKit/537.36 (KHTML, like Gecko) Chrome/110.0.0.0 Safari/537.36" etag="Mdt-XpHIDZxcvk2tFYRP" version="20.8.23" type="github">
  <diagram id="XXB_yrsVPrWTaqCzHYOn" name="Page-1">
    <mxGraphModel dx="1141" dy="627" grid="1" gridSize="10" guides="1" tooltips="1" connect="1" arrows="1" fold="1" page="1" pageScale="1" pageWidth="827" pageHeight="1169" background="#FFFFFF" math="0" shadow="0">
      <root>
        <mxCell id="0" />
        <mxCell id="2" value="Layer 0" parent="0" />
        <mxCell id="3" value="&lt;div style=&quot;width: 93.0px;height:auto;word-break: break-word;&quot;&gt;&lt;div align=&quot;center&quot;&gt;Jules&lt;/div&gt;&lt;div align=&quot;center&quot;&gt;&lt;span style=&quot;font-family:Arial;text-decoration:none;font-size:12px; line-height: 0;&quot;&gt;&lt;span style=&quot;text-decoration:none; line-height: normal;&quot;&gt;Jenkins&lt;/span&gt;&lt;/span&gt;&lt;/div&gt;&lt;div align=&quot;center&quot;&gt;&lt;span style=&quot;font-family:Arial;text-decoration:none;font-size:12px; line-height: 0;&quot;&gt;&lt;span style=&quot;text-decoration:none; line-height: normal;&quot;&gt;Cloud Services&lt;/span&gt;&lt;/span&gt;&lt;/div&gt;&lt;/div&gt;" style="shape=document;size=0.2;shadow=0;strokeWidth=2;fillColor=#FFFFFF;strokeColor=#333333;opacity=100.0;html=1;nl2Br=0;verticalAlign=middle;align=center;spacingLeft=2.0;spacingRight=0;whiteSpace=wrap;gliffyId=463;" parent="2" vertex="1">
          <mxGeometry x="192" y="680" width="100" height="110" as="geometry" />
        </mxCell>
        <mxCell id="4" value="&lt;div style=&quot;width: 93.0px;height:auto;word-break: break-word;&quot;&gt;&lt;div align=&quot;center&quot;&gt;&lt;span style=&quot;font-family:Arial;text-decoration:none;font-size:12px; line-height: 0;&quot;&gt;&lt;span style=&quot;text-decoration:none; line-height: normal;&quot;&gt;JFrog&lt;/span&gt;&lt;/span&gt;&lt;/div&gt;&lt;div align=&quot;center&quot;&gt;&lt;font face=&quot;Arial&quot;&gt;Artifactory&lt;/font&gt;&lt;/div&gt;&lt;div align=&quot;center&quot;&gt;&lt;span style=&quot;font-family:Arial;text-decoration:none;font-size:12px; line-height: 0;&quot;&gt;&lt;span style=&quot;text-decoration:none; line-height: normal;&quot;&gt;Cloud Servics&lt;/span&gt;&lt;/span&gt;&lt;/div&gt;&lt;/div&gt;" style="shape=document;size=0.2;shadow=0;strokeWidth=2;fillColor=#FFFFFF;strokeColor=#333333;opacity=100.0;html=1;nl2Br=0;verticalAlign=middle;align=center;spacingLeft=2.0;spacingRight=0;whiteSpace=wrap;gliffyId=465;" parent="2" vertex="1">
          <mxGeometry x="350" y="680" width="100" height="110" as="geometry" />
        </mxCell>
        <mxCell id="5" value="&lt;div style=&quot;width: 93.0px;height:auto;word-break: break-word;&quot;&gt;&lt;div align=&quot;center&quot;&gt;&lt;span style=&quot;font-family:Arial;text-decoration:none;font-size:12px; line-height: 0;&quot;&gt;&lt;span style=&quot;text-decoration:none; line-height: normal;&quot;&gt;Github&lt;/span&gt;&lt;/span&gt;&lt;/div&gt;&lt;div align=&quot;center&quot;&gt;&lt;span style=&quot;font-family:Arial;text-decoration:none;font-size:12px; line-height: 0;&quot;&gt;&lt;span style=&quot;text-decoration:none; line-height: normal;&quot;&gt;Bitbucket&lt;/span&gt;&lt;/span&gt;&lt;/div&gt;&lt;div align=&quot;center&quot;&gt;&lt;span style=&quot;font-family:Arial;text-decoration:none;font-size:12px; line-height: 0;&quot;&gt;&lt;span style=&quot;text-decoration:none; line-height: normal;&quot;&gt;Cloud Services&lt;/span&gt;&lt;/span&gt;&lt;/div&gt;&lt;/div&gt;" style="shape=document;size=0.2;shadow=0;strokeWidth=2;fillColor=#FFFFFF;strokeColor=#333333;opacity=100.0;html=1;nl2Br=0;verticalAlign=middle;align=center;spacingLeft=2.0;spacingRight=0;whiteSpace=wrap;gliffyId=461;" parent="2" vertex="1">
          <mxGeometry x="30" y="680" width="100" height="110" as="geometry" />
        </mxCell>
        <mxCell id="6" value="&lt;div style=&#39;width: 74.333336px;height:auto;word-break: break-word;&#39;&gt;&lt;div align=&quot;center&quot;&gt;&lt;span style=&quot;font-family:Arial;text-decoration:none;font-size:12px; line-height: 0;&quot;&gt;&lt;span style=&quot;text-decoration:none; line-height: normal;&quot;&gt;local dev &amp;amp; test&lt;br /&gt;&lt;/span&gt;&lt;/span&gt;&lt;/div&gt;&lt;/div&gt;" style="shape=mxgraph.bpmn.task;rectStyle=rounded;size=10;taskMarker=abstract;points=[[0.25,0,0],[0.5,0,0],[0.75,0,0],[1,0.25,0],[1,0.5,0],[1,0.75,0],[0.75,1,0],[0.5,1,0],[0.25,1,0],[0,0.75,0],[0,0.5,0],[0,0.25,0]];shadow=0;strokeWidth=1;fillColor=#FFFFFF;strokeColor=#000000;opacity=100.0;html=1;nl2Br=0;verticalAlign=middle;align=center;spacingLeft=1.3333334;spacingRight=0;whiteSpace=wrap;gliffyId=54;" parent="2" vertex="1">
          <mxGeometry x="112" y="80" width="80" height="70" as="geometry" />
        </mxCell>
        <mxCell id="7" value="&lt;div style=&#39;width: 53.0px;height:auto;word-break: break-word;&#39;&gt;&lt;div align=&quot;center&quot;&gt;&lt;span style=&quot;font-family:Arial;text-decoration:none;font-size:12px; line-height: 0;&quot;&gt;&lt;span style=&quot;text-decoration:none; line-height: normal;&quot;&gt;PR&lt;br /&gt;&lt;/span&gt;&lt;/span&gt;&lt;/div&gt;&lt;/div&gt;" style="shape=rhombus;perimeter=rhombusPerimeter;shadow=0;strokeWidth=2;fillColor=#FFFFFF;strokeColor=#333333;opacity=100.0;html=1;nl2Br=0;verticalAlign=middle;align=center;spacingLeft=8.0;spacingRight=6;whiteSpace=wrap;gliffyId=60;" parent="2" vertex="1">
          <mxGeometry x="400" y="86" width="60" height="50" as="geometry" />
        </mxCell>
        <mxCell id="8" value="&lt;div style=&#39;width: 53.0px;height:auto;word-break: break-word;&#39;&gt;&lt;div align=&quot;center&quot;&gt;&lt;span style=&quot;font-family:Arial;font-size:12px; line-height: normal;&quot;&gt;pass/&lt;/span&gt;&lt;/div&gt;&lt;div align=&quot;center&quot;&gt;&lt;span style=&quot;font-family:Arial;font-size:12px; line-height: normal;&quot;&gt;fail&lt;/span&gt;&lt;/div&gt;&lt;/div&gt;" style="shape=rhombus;perimeter=rhombusPerimeter;shadow=0;strokeWidth=2;fillColor=#FFFFFF;strokeColor=#333333;opacity=100.0;html=1;nl2Br=0;verticalAlign=middle;align=center;spacingLeft=8.0;spacingRight=6;whiteSpace=wrap;gliffyId=133;" parent="2" vertex="1">
          <mxGeometry x="605" y="86" width="60" height="50" as="geometry" />
        </mxCell>
        <mxCell id="9" style="shape=filledEdge;strokeWidth=2;strokeColor=#b6d7a8;fillColor=none;startArrow=none;startFill=0;startSize=6;endArrow=block;endFill=1;endSize=6;rounded=1;gliffyId=153;edgeStyle=orthogonalEdgeStyle;" parent="2" source="64" target="57" edge="1">
          <mxGeometry width="143" height="339" relative="1" as="geometry">
            <Array as="points">
              <mxPoint x="907.5" y="275" />
              <mxPoint x="1033.431396484375" y="275" />
              <mxPoint x="1033.431396484375" y="148.5" />
            </Array>
          </mxGeometry>
        </mxCell>
        <mxCell id="10" style="shape=filledEdge;strokeWidth=2;strokeColor=#000000;fillColor=none;startArrow=none;startFill=0;startSize=6;endArrow=block;endFill=1;endSize=6;rounded=1;dashed=1;fixDash=1;dashPattern=2.0 2.0;gliffyId=154;edgeStyle=orthogonalEdgeStyle;" parent="2" source="82" target="57" edge="1">
          <mxGeometry width="96" height="6" relative="1" as="geometry">
            <Array as="points">
              <mxPoint x="942.4833374023438" y="113.5" />
              <mxPoint x="964.9888916015625" y="113.5" />
              <mxPoint x="987.4944458007812" y="113.5" />
              <mxPoint x="1010" y="113.5" />
            </Array>
          </mxGeometry>
        </mxCell>
        <mxCell id="11" style="shape=filledEdge;strokeWidth=2;strokeColor=#000000;fillColor=none;startArrow=none;startFill=0;startSize=6;endArrow=block;endFill=1;endSize=6;rounded=1;gliffyId=164;edgeStyle=orthogonalEdgeStyle;" parent="2" source="7" edge="1">
          <mxGeometry width="237" height="16" relative="1" as="geometry">
            <Array as="points">
              <mxPoint x="430" y="86" />
              <mxPoint x="430" y="42.5" />
              <mxPoint x="530" y="42.5" />
            </Array>
            <mxPoint x="530" y="42.5" as="targetPoint" />
          </mxGeometry>
        </mxCell>
        <mxCell id="12" style="shape=filledEdge;strokeWidth=2;strokeColor=#000000;fillColor=none;startArrow=none;startFill=0;startSize=6;endArrow=block;endFill=1;endSize=6;rounded=1;gliffyId=167;edgeStyle=orthogonalEdgeStyle;" parent="2" source="8" target="6" edge="1">
          <mxGeometry width="525" height="26" relative="1" as="geometry">
            <Array as="points">
              <mxPoint x="635" y="136" />
              <mxPoint x="635" y="190" />
              <mxPoint x="168.56854248046875" y="190" />
              <mxPoint x="168.56854248046875" y="150" />
            </Array>
          </mxGeometry>
        </mxCell>
        <mxCell id="13" style="shape=filledEdge;strokeWidth=2;strokeColor=#000000;fillColor=none;startArrow=block;startFill=1;startSize=6;endArrow=none;endFill=0;endSize=6;rounded=1;gliffyId=168;edgeStyle=orthogonalEdgeStyle;" parent="2" source="8" edge="1">
          <mxGeometry width="21" height="108" relative="1" as="geometry">
            <Array as="points">
              <mxPoint x="635" y="86" />
              <mxPoint x="635" y="42.5" />
              <mxPoint x="590" y="42.5" />
            </Array>
            <mxPoint x="590" y="42.5" as="targetPoint" />
          </mxGeometry>
        </mxCell>
        <mxCell id="14" style="shape=filledEdge;strokeWidth=2;strokeColor=#000000;fillColor=none;startArrow=none;startFill=0;startSize=6;endArrow=block;endFill=1;endSize=6;rounded=1;gliffyId=191;edgeStyle=orthogonalEdgeStyle;" parent="2" source="6" target="51" edge="1">
          <mxGeometry width="34" height="6" relative="1" as="geometry">
            <Array as="points">
              <mxPoint x="191.97384643554688" y="113.5" />
              <mxPoint x="206.31590270996094" y="113.5" />
              <mxPoint x="220.65794372558594" y="113.5" />
              <mxPoint x="235" y="113.5" />
            </Array>
          </mxGeometry>
        </mxCell>
        <mxCell id="DRjgZrffhy7Aq12jiZPh-84" value="push" style="edgeLabel;html=1;align=center;verticalAlign=middle;resizable=0;points=[];" vertex="1" connectable="0" parent="14">
          <mxGeometry x="0.0233" y="-1" relative="1" as="geometry">
            <mxPoint as="offset" />
          </mxGeometry>
        </mxCell>
        <mxCell id="15" style="shape=filledEdge;strokeWidth=2;strokeColor=#000000;fillColor=none;startArrow=none;startFill=0;startSize=6;endArrow=block;endFill=1;endSize=6;rounded=1;gliffyId=192;edgeStyle=orthogonalEdgeStyle;" parent="2" source="51" target="7" edge="1">
          <mxGeometry width="30" height="1" relative="1" as="geometry">
            <Array as="points">
              <mxPoint x="314.9632568359375" y="111" />
              <mxPoint x="343.308837890625" y="111" />
              <mxPoint x="371.6544189453125" y="111" />
              <mxPoint x="400" y="111" />
            </Array>
          </mxGeometry>
        </mxCell>
        <mxCell id="16" style="shape=filledEdge;strokeWidth=2;strokeColor=#000000;fillColor=none;startArrow=none;startFill=0;startSize=6;endArrow=block;endFill=1;endSize=6;rounded=1;gliffyId=193;edgeStyle=orthogonalEdgeStyle;" parent="2" source="54" target="82" edge="1">
          <mxGeometry width="68" height="1" relative="1" as="geometry">
            <Array as="points">
              <mxPoint x="795.75" y="113.5" />
              <mxPoint x="818.005615234375" y="113.5" />
              <mxPoint x="840.26123046875" y="113.5" />
              <mxPoint x="862.516845703125" y="113.5" />
            </Array>
          </mxGeometry>
        </mxCell>
        <mxCell id="17" style="shape=filledEdge;strokeWidth=2;strokeColor=#b6d7a8;fillColor=none;startArrow=none;startFill=0;startSize=6;endArrow=block;endFill=1;endSize=6;rounded=1;gliffyId=195;edgeStyle=orthogonalEdgeStyle;" parent="2" source="82" target="64" edge="1">
          <mxGeometry width="39" height="96" relative="1" as="geometry">
            <Array as="points">
              <mxPoint x="902.5" y="150" />
              <mxPoint x="902.5" y="195" />
              <mxPoint x="867.5" y="195" />
              <mxPoint x="867.5" y="240" />
            </Array>
          </mxGeometry>
        </mxCell>
        <mxCell id="18" style="shape=filledEdge;strokeWidth=2;strokeColor=#b6d7a8;fillColor=none;startArrow=none;startFill=0;startSize=6;endArrow=block;endFill=1;endSize=6;rounded=1;html=1;nl2Br=0;gliffyId=196;edgeStyle=orthogonalEdgeStyle;" parent="2" source="64" target="6" edge="1">
          <mxGeometry width="695" height="190" relative="1" as="geometry">
            <Array as="points">
              <mxPoint x="827.5" y="275" />
              <mxPoint x="152" y="275" />
              <mxPoint x="152" y="150" />
            </Array>
          </mxGeometry>
        </mxCell>
        <mxCell id="19" value="&lt;div style=&#39;width: 35.6875px;height:auto;word-break: break-word;&#39;&gt;&lt;div align=&quot;center&quot;&gt;&lt;span style=&quot;font-family:Arial;font-size:12px; line-height: normal;&quot;&gt;FAIL&lt;/span&gt;&lt;/div&gt;&lt;/div&gt;" style="text;html=1;nl2Br=0;labelBackgroundColor=#FFFFFF;html=1;nl2Br=0;verticalAlign=middle;align=center;spacingLeft=0.0;spacingRight=0;gliffyId=197;" parent="18" vertex="1">
          <mxGeometry relative="1" as="geometry">
            <mxPoint as="offset" />
          </mxGeometry>
        </mxCell>
        <mxCell id="20" style="shape=filledEdge;strokeWidth=2;strokeColor=#c27ba0;fillColor=none;startArrow=none;startFill=0;startSize=6;endArrow=block;endFill=1;endSize=6;rounded=1;html=1;nl2Br=0;gliffyId=202;edgeStyle=orthogonalEdgeStyle;" parent="2" source="67" target="6" edge="1">
          <mxGeometry width="580" height="495" relative="1" as="geometry">
            <Array as="points">
              <mxPoint x="823.75" y="378" />
              <mxPoint x="135.43145751953125" y="378" />
              <mxPoint x="135.43145751953125" y="150" />
            </Array>
          </mxGeometry>
        </mxCell>
        <mxCell id="21" value="&lt;div style=&#39;width: 35.6875px;height:auto;word-break: break-word;&#39;&gt;&lt;div align=&quot;center&quot;&gt;&lt;span style=&quot;font-family:Arial;font-size:12px; line-height: 0;&quot;&gt;&lt;span style=&quot; line-height: normal;&quot;&gt;FAIL&lt;/span&gt;&lt;/span&gt;&lt;/div&gt;&lt;/div&gt;" style="text;html=1;nl2Br=0;labelBackgroundColor=#FFFFFF;html=1;nl2Br=0;verticalAlign=middle;align=center;spacingLeft=0.0;spacingRight=0;gliffyId=435;" parent="20" vertex="1">
          <mxGeometry x="-0.13574449952273238" relative="1" as="geometry">
            <mxPoint as="offset" />
          </mxGeometry>
        </mxCell>
        <mxCell id="22" style="shape=filledEdge;strokeWidth=2;strokeColor=#c27ba0;fillColor=none;startArrow=none;startFill=0;startSize=6;endArrow=block;endFill=1;endSize=6;rounded=1;gliffyId=186;edgeStyle=orthogonalEdgeStyle;" parent="2" source="67" target="57" edge="1">
          <mxGeometry width="169" height="673" relative="1" as="geometry">
            <Array as="points">
              <mxPoint x="903.75" y="378" />
              <mxPoint x="1066.568603515625" y="378" />
              <mxPoint x="1066.568603515625" y="148.5" />
            </Array>
          </mxGeometry>
        </mxCell>
        <mxCell id="23" style="shape=filledEdge;strokeWidth=2;strokeColor=#000000;fillColor=none;startArrow=none;startFill=0;startSize=6;endArrow=block;endFill=1;endSize=6;rounded=1;gliffyId=274;edgeStyle=orthogonalEdgeStyle;" parent="2" source="37" target="67" edge="1">
          <mxGeometry width="123" height="117" relative="1" as="geometry">
            <Array as="points">
              <mxPoint x="655.75" y="540" />
              <mxPoint x="655.75" y="440" />
              <mxPoint x="863.75" y="440" />
              <mxPoint x="863.75" y="413" />
            </Array>
          </mxGeometry>
        </mxCell>
        <mxCell id="24" style="shape=filledEdge;strokeWidth=2;strokeColor=#000000;fillColor=none;startArrow=none;startFill=0;startSize=6;endArrow=block;endFill=1;endSize=6;rounded=1;gliffyId=336;edgeStyle=orthogonalEdgeStyle;" parent="2" target="6" edge="1">
          <mxGeometry width="38" height="13" relative="1" as="geometry">
            <Array as="points">
              <mxPoint x="60" y="110" />
              <mxPoint x="77.41327667236328" y="110" />
              <mxPoint x="94.82655334472656" y="110" />
              <mxPoint x="112.23983001708984" y="110" />
            </Array>
            <mxPoint x="60" y="110" as="sourcePoint" />
          </mxGeometry>
        </mxCell>
        <mxCell id="25" style="shape=filledEdge;strokeWidth=2;strokeColor=#000000;fillColor=none;startArrow=none;startFill=0;startSize=6;endArrow=block;endFill=1;endSize=6;rounded=1;gliffyId=358;edgeStyle=orthogonalEdgeStyle;" parent="2" source="8" target="54" edge="1">
          <mxGeometry width="68" height="1" relative="1" as="geometry">
            <Array as="points">
              <mxPoint x="665" y="111" />
              <mxPoint x="681.9371948242188" y="111" />
              <mxPoint x="698.8743896484375" y="111" />
              <mxPoint x="715.8115234375" y="111" />
            </Array>
          </mxGeometry>
        </mxCell>
        <mxCell id="26" value="&lt;div style=&#39;width: 35.22222px;height:auto;word-break: break-word;&#39;&gt;&lt;div align=&quot;center&quot;&gt;&lt;span style=&quot;font-family:Arial;color:#ffffff;text-decoration:none;font-size:12px; line-height: 0;&quot;&gt;&lt;span style=&quot;text-decoration:none; line-height: normal;&quot;&gt;prod&lt;/span&gt;&lt;/span&gt;&lt;/div&gt;&lt;/div&gt;" style="shape=ellipse;perimeter=ellipsePerimeter;shadow=0;strokeWidth=2;fillColor=#a4c2f4;strokeColor=#a4c2f4;opacity=100.0;html=1;nl2Br=0;verticalAlign=middle;align=center;spacingLeft=0.8888889;spacingRight=0;whiteSpace=wrap;gliffyId=363;" parent="2" vertex="1">
          <mxGeometry x="1160" y="335.25" width="40" height="40" as="geometry" />
        </mxCell>
        <mxCell id="27" value="&lt;div style=&#39;width: 35.22222px;height:auto;word-break: break-word;&#39;&gt;&lt;div align=&quot;center&quot;&gt;&lt;span style=&quot;font-family:Arial;color:#ffffff;text-decoration:none;font-size:12px; line-height: 0;&quot;&gt;&lt;span style=&quot;text-decoration:none; line-height: normal;&quot;&gt;env&lt;/span&gt;&lt;/span&gt;&lt;/div&gt;&lt;/div&gt;" style="shape=ellipse;perimeter=ellipsePerimeter;shadow=0;strokeWidth=2;fillColor=#c27ba0;strokeColor=#c27ba0;opacity=100.0;html=1;nl2Br=0;verticalAlign=middle;align=center;spacingLeft=0.8888889;spacingRight=0;whiteSpace=wrap;gliffyId=384;" parent="2" vertex="1">
          <mxGeometry x="1260" y="335.25" width="40" height="40" as="geometry" />
        </mxCell>
        <mxCell id="28" value="&lt;div style=&#39;width: 35.22222px;height:auto;word-break: break-word;&#39;&gt;&lt;div align=&quot;center&quot;&gt;&lt;span style=&quot;font-family:Arial;color:#ffffff;text-decoration:none;font-size:12px; line-height: 0;&quot;&gt;&lt;span style=&quot;text-decoration:none; line-height: normal;&quot;&gt;build&lt;/span&gt;&lt;/span&gt;&lt;/div&gt; &lt;div align=&quot;center&quot;&gt;&lt;span style=&quot;font-family:Arial;color:#ffffff;text-decoration:none;font-size:12px; line-height: 0;&quot;&gt;&lt;span style=&quot;text-decoration:none; line-height: normal;&quot;&gt;server&lt;/span&gt;&lt;/span&gt;&lt;/div&gt;&lt;/div&gt;" style="shape=ellipse;perimeter=ellipsePerimeter;shadow=0;strokeWidth=2;fillColor=#1155cc;strokeColor=#1155cc;opacity=100.0;html=1;nl2Br=0;verticalAlign=middle;align=center;spacingLeft=0.8888889;spacingRight=0;whiteSpace=wrap;gliffyId=458;" parent="2" vertex="1">
          <mxGeometry x="225" y="660" width="40" height="40" as="geometry" />
        </mxCell>
        <mxCell id="29" value="&lt;div style=&#39;width: 35.22222px;height:auto;word-break: break-word;&#39;&gt;&lt;div align=&quot;center&quot;&gt;&lt;span style=&quot;font-family:Arial;color:rgb(255, 255, 255);font-size:12px; line-height: normal;&quot;&gt;repo&lt;span style=&quot;text-decoration:none; line-height: normal;&quot;&gt;&lt;br /&gt;&lt;/span&gt;&lt;/span&gt;&lt;/div&gt;&lt;/div&gt;" style="shape=ellipse;perimeter=ellipsePerimeter;shadow=0;strokeWidth=2;fillColor=#ff9900;strokeColor=#ff9900;opacity=100.0;html=1;nl2Br=0;verticalAlign=middle;align=center;spacingLeft=0.8888889;spacingRight=0;whiteSpace=wrap;gliffyId=402;" parent="2" vertex="1">
          <mxGeometry x="1180" y="246.25" width="40" height="40" as="geometry" />
        </mxCell>
        <mxCell id="30" value="&lt;div style=&#39;width: 35.22222px;height:auto;word-break: break-word;&#39;&gt;&lt;div align=&quot;center&quot;&gt;&lt;span style=&quot;font-family:Arial;color:rgb(255, 255, 255);font-size:12px; line-height: normal;&quot;&gt;repo&lt;span style=&quot;text-decoration:none; line-height: normal;&quot;&gt;&lt;br /&gt;&lt;/span&gt;&lt;/span&gt;&lt;/div&gt;&lt;/div&gt;" style="shape=ellipse;perimeter=ellipsePerimeter;shadow=0;strokeWidth=2;fillColor=#ff9900;strokeColor=#ff9900;opacity=100.0;html=1;nl2Br=0;verticalAlign=middle;align=center;spacingLeft=0.8888889;spacingRight=0;whiteSpace=wrap;gliffyId=454;" parent="2" vertex="1">
          <mxGeometry x="60" y="660" width="40" height="40" as="geometry" />
        </mxCell>
        <mxCell id="31" value="&lt;div style=&#39;width: 35.22222px;height:auto;word-break: break-word;&#39;&gt;&lt;div align=&quot;center&quot;&gt;&lt;span style=&quot;font-family:Arial;color:#ffffff;font-size:12px; line-height: 0;&quot;&gt;&lt;span style=&quot;text-decoration:none; line-height: normal;&quot;&gt;binary&lt;/span&gt;&lt;/span&gt;&lt;/div&gt;&lt;div align=&quot;center&quot;&gt;&lt;span style=&quot;font-family:Arial;color:#ffffff;font-size:12px; line-height: 0;&quot;&gt;&lt;span style=&quot;text-decoration:none; line-height: normal;&quot;&gt;repo&lt;/span&gt;&lt;/span&gt;&lt;/div&gt;&lt;/div&gt;" style="shape=ellipse;perimeter=ellipsePerimeter;shadow=0;strokeWidth=2;fillColor=#6aa84f;strokeColor=#6aa84f;opacity=100.0;html=1;nl2Br=0;verticalAlign=middle;align=center;spacingLeft=0.8888889;spacingRight=0;whiteSpace=wrap;gliffyId=367;" parent="2" vertex="1">
          <mxGeometry x="1330" y="246.25" width="40" height="40" as="geometry" />
        </mxCell>
        <mxCell id="32" value="&lt;div style=&#39;width: 35.22222px;height:auto;word-break: break-word;&#39;&gt;&lt;div align=&quot;center&quot;&gt;&lt;span style=&quot;font-family:Arial;color:#ffffff;font-size:12px; line-height: 0;&quot;&gt;&lt;span style=&quot;text-decoration:none; line-height: normal;&quot;&gt;binary&lt;/span&gt;&lt;/span&gt;&lt;/div&gt;&lt;div align=&quot;center&quot;&gt;&lt;span style=&quot;font-family:Arial;color:#ffffff;font-size:12px; line-height: 0;&quot;&gt;&lt;span style=&quot;text-decoration:none; line-height: normal;&quot;&gt;repo&lt;/span&gt;&lt;/span&gt;&lt;/div&gt;&lt;/div&gt;" style="shape=ellipse;perimeter=ellipsePerimeter;shadow=0;strokeWidth=2;fillColor=#6aa84f;strokeColor=#6aa84f;opacity=100.0;html=1;nl2Br=0;verticalAlign=middle;align=center;spacingLeft=0.8888889;spacingRight=0;whiteSpace=wrap;gliffyId=456;" parent="2" vertex="1">
          <mxGeometry x="380" y="660" width="40" height="40" as="geometry" />
        </mxCell>
        <mxCell id="33" value="&lt;div style=&#39;width: 35.22222px;height:auto;word-break: break-word;&#39;&gt;&lt;div align=&quot;center&quot;&gt;&lt;span style=&quot;font-family:Arial;color:#ffffff;font-size:12px; line-height: 0;&quot;&gt;&lt;span style=&quot;text-decoration:none; line-height: normal;&quot;&gt;CI&lt;/span&gt;&lt;/span&gt;&lt;/div&gt;&lt;/div&gt;" style="shape=ellipse;perimeter=ellipsePerimeter;shadow=0;strokeWidth=2;fillColor=#b6d7a8;strokeColor=#b6d7a8;opacity=100.0;html=1;nl2Br=0;verticalAlign=middle;align=center;spacingLeft=0.8888889;spacingRight=0;whiteSpace=wrap;gliffyId=398;" parent="2" vertex="1">
          <mxGeometry x="1350" y="335.25" width="40" height="40" as="geometry" />
        </mxCell>
        <mxCell id="50" style="group;gliffyId=408;" parent="2" vertex="1">
          <mxGeometry x="235" y="52.5" width="100" height="96" as="geometry" />
        </mxCell>
        <mxCell id="51" value="&lt;div style=&#39;width: 74.333336px;height:auto;word-break: break-word;&#39;&gt;&lt;div align=&quot;center&quot;&gt;&lt;span style=&quot;font-family:Arial;text-decoration:none;font-size:12px; line-height: 0;&quot;&gt;&lt;span style=&quot;text-decoration:none; line-height: normal;&quot;&gt;build &amp;amp; test on build server&lt;br /&gt;&lt;/span&gt;&lt;/span&gt;&lt;/div&gt;&lt;/div&gt;" style="shape=mxgraph.bpmn.task;rectStyle=rounded;size=10;taskMarker=abstract;points=[[0.25,0,0],[0.5,0,0],[0.75,0,0],[1,0.25,0],[1,0.5,0],[1,0.75,0],[0.75,1,0],[0.5,1,0],[0.25,1,0],[0,0.75,0],[0,0.5,0],[0,0.25,0]];shadow=0;strokeWidth=1;fillColor=#FFFFFF;strokeColor=#000000;opacity=100.0;html=1;nl2Br=0;verticalAlign=middle;align=center;spacingLeft=1.3333334;spacingRight=0;whiteSpace=wrap;gliffyId=126;" parent="50" vertex="1">
          <mxGeometry x="36" y="26" width="80" height="70" as="geometry" />
        </mxCell>
        <mxCell id="53" style="group;gliffyId=409;" parent="2" vertex="1">
          <mxGeometry x="715.75" y="52.5" width="100" height="96" as="geometry" />
        </mxCell>
        <mxCell id="54" value="&lt;div style=&#39;width: 74.333336px;height:auto;word-break: break-word;&#39;&gt;&lt;div align=&quot;center&quot;&gt;&lt;span style=&quot;font-family:Arial;text-decoration:none;font-size:12px; line-height: 0;&quot;&gt;&lt;span style=&quot;text-decoration:none; line-height: normal;&quot;&gt;merge into master&lt;br /&gt;&lt;/span&gt;&lt;/span&gt;&lt;/div&gt;&lt;/div&gt;" style="shape=mxgraph.bpmn.task;rectStyle=rounded;size=10;taskMarker=abstract;points=[[0.25,0,0],[0.5,0,0],[0.75,0,0],[1,0.25,0],[1,0.5,0],[1,0.75,0],[0.75,1,0],[0.5,1,0],[0.25,1,0],[0,0.75,0],[0,0.5,0],[0,0.25,0]];shadow=0;strokeWidth=1;fillColor=#FFFFFF;strokeColor=#000000;opacity=100.0;html=1;nl2Br=0;verticalAlign=middle;align=center;spacingLeft=1.3333334;spacingRight=0;whiteSpace=wrap;gliffyId=66;" parent="53" vertex="1">
          <mxGeometry y="26" width="80" height="70" as="geometry" />
        </mxCell>
        <mxCell id="55" value="&lt;div style=&#39;width: 35.22222px;height:auto;word-break: break-word;&#39;&gt;&lt;div align=&quot;center&quot;&gt;&lt;span style=&quot;font-family:Arial;color:rgb(255, 255, 255);font-size:12px; line-height: normal;&quot;&gt;repo&lt;span style=&quot;text-decoration:none; line-height: normal;&quot;&gt;&lt;br /&gt;&lt;/span&gt;&lt;/span&gt;&lt;/div&gt;&lt;/div&gt;" style="shape=ellipse;perimeter=ellipsePerimeter;shadow=0;strokeWidth=2;fillColor=#ff9900;strokeColor=#ff9900;opacity=100.0;html=1;nl2Br=0;verticalAlign=middle;align=center;spacingLeft=0.8888889;spacingRight=0;whiteSpace=wrap;gliffyId=365;" parent="53" vertex="1">
          <mxGeometry x="60" width="40" height="40" as="geometry" />
        </mxCell>
        <mxCell id="56" style="group;gliffyId=411;" parent="2" vertex="1">
          <mxGeometry x="1010" y="52.5" width="100" height="96" as="geometry" />
        </mxCell>
        <mxCell id="57" value="&lt;div style=&#39;width: 74.333336px;height:auto;word-break: break-word;&#39;&gt;&lt;div align=&quot;center&quot;&gt;&lt;span style=&quot;font-family:Arial;text-decoration:none;font-size:12px; line-height: 0;&quot;&gt;&lt;span style=&quot;text-decoration:none; line-height: normal;&quot;&gt;push into artifactory &amp;amp; tagged with git hash&lt;br /&gt;&lt;/span&gt;&lt;/span&gt;&lt;/div&gt;&lt;/div&gt;" style="shape=mxgraph.bpmn.task;rectStyle=rounded;size=10;taskMarker=abstract;points=[[0.25,0,0],[0.5,0,0],[0.75,0,0],[1,0.25,0],[1,0.5,0],[1,0.75,0],[0.75,1,0],[0.5,1,0],[0.25,1,0],[0,0.75,0],[0,0.5,0],[0,0.25,0]];shadow=0;strokeWidth=1;fillColor=#FFFFFF;strokeColor=#000000;opacity=100.0;html=1;nl2Br=0;verticalAlign=middle;align=center;spacingLeft=1.3333334;spacingRight=0;whiteSpace=wrap;gliffyId=78;" parent="56" vertex="1">
          <mxGeometry y="26" width="80" height="70" as="geometry" />
        </mxCell>
        <mxCell id="58" value="&lt;div style=&#39;width: 35.22222px;height:auto;word-break: break-word;&#39;&gt;&lt;div align=&quot;center&quot;&gt;&lt;span style=&quot;font-family:Arial;color:#ffffff;font-size:12px; line-height: 0;&quot;&gt;&lt;span style=&quot;text-decoration:none; line-height: normal;&quot;&gt;binary&lt;/span&gt;&lt;/span&gt;&lt;/div&gt;&lt;div align=&quot;center&quot;&gt;&lt;span style=&quot;font-family:Arial;color:#ffffff;font-size:12px; line-height: 0;&quot;&gt;&lt;span style=&quot;text-decoration:none; line-height: normal;&quot;&gt;repo&lt;/span&gt;&lt;/span&gt;&lt;/div&gt;&lt;/div&gt;" style="shape=ellipse;perimeter=ellipsePerimeter;shadow=0;strokeWidth=2;fillColor=#6aa84f;strokeColor=#6aa84f;opacity=100.0;html=1;nl2Br=0;verticalAlign=middle;align=center;spacingLeft=0.8888889;spacingRight=0;whiteSpace=wrap;gliffyId=396;" parent="56" vertex="1">
          <mxGeometry x="60" width="40" height="40" as="geometry" />
        </mxCell>
        <mxCell id="59" value="&lt;div style=&#39;width: 93.0px;height:auto;word-break: break-word;&#39;&gt;&lt;div align=&quot;center&quot;&gt;&lt;span style=&quot;font-family:Arial;text-decoration:none;font-size:12px; line-height: 0;&quot;&gt;&lt;span style=&quot;text-decoration:none; line-height: normal;&quot;&gt;static analysis&lt;/span&gt;&lt;/span&gt;&lt;/div&gt;&lt;/div&gt;" style="shape=mxgraph.flowchart.terminator;shadow=0;strokeWidth=2;fillColor=#FFFFFF;strokeColor=#333333;opacity=100.0;html=1;nl2Br=0;verticalAlign=middle;align=center;spacingLeft=2.0;spacingRight=0;whiteSpace=wrap;gliffyId=414;" parent="2" vertex="1">
          <mxGeometry x="1230" y="170.25" width="100" height="50" as="geometry" />
        </mxCell>
        <mxCell id="60" value="&lt;div style=&#39;width: 93.0px;height:auto;word-break: break-word;&#39;&gt;&lt;div align=&quot;center&quot;&gt;&lt;span style=&quot;font-family:Arial;text-decoration:none;font-size:12px; line-height: 0;&quot;&gt;&lt;span style=&quot;text-decoration:none; line-height: normal;&quot;&gt;dynamic analysis&lt;/span&gt;&lt;/span&gt;&lt;/div&gt;&lt;/div&gt;" style="shape=mxgraph.flowchart.terminator;shadow=0;strokeWidth=2;fillColor=#FFFFFF;strokeColor=#333333;opacity=100.0;html=1;nl2Br=0;verticalAlign=middle;align=center;spacingLeft=2.0;spacingRight=0;whiteSpace=wrap;gliffyId=416;" parent="2" vertex="1">
          <mxGeometry x="1230" y="423.25" width="100" height="50" as="geometry" />
        </mxCell>
        <mxCell id="61" value="&lt;div style=&#39;width: 93.0px;height:auto;word-break: break-word;&#39;&gt;&lt;div align=&quot;center&quot;&gt;&lt;span style=&quot;font-family:Arial;text-decoration:none;font-size:12px; line-height: 0;&quot;&gt;&lt;span style=&quot;text-decoration:none; line-height: normal;&quot;&gt;SonarQube&lt;/span&gt;&lt;/span&gt;&lt;/div&gt;&lt;div align=&quot;center&quot;&gt;&lt;span style=&quot;font-family:Arial;text-decoration:none;font-size:12px; line-height: 0;&quot;&gt;&lt;span style=&quot;text-decoration:none; line-height: normal;&quot;&gt;ScanCode&lt;/span&gt;&lt;/span&gt;&lt;/div&gt;&lt;div align=&quot;center&quot;&gt;&lt;span style=&quot;font-family:Arial;text-decoration:none;font-size:12px; line-height: 0;&quot;&gt;&lt;span style=&quot;text-decoration:none; line-height: normal;&quot;&gt;Anchore&lt;/span&gt;&lt;/span&gt;&lt;/div&gt;&lt;div align=&quot;center&quot;&gt;&lt;span style=&quot;font-family:Arial;text-decoration:none;font-size:12px; line-height: 0;&quot;&gt;&lt;span style=&quot;text-decoration:none; line-height: normal;&quot;&gt;X-Ray&lt;/span&gt;&lt;/span&gt;&lt;/div&gt;&lt;/div&gt;" style="shape=document;size=0.2;shadow=0;strokeWidth=2;fillColor=#FFFFFF;strokeColor=#333333;opacity=100.0;html=1;nl2Br=0;verticalAlign=middle;align=center;spacingLeft=2.0;spacingRight=0;whiteSpace=wrap;gliffyId=419;" parent="2" vertex="1">
          <mxGeometry x="1230" y="17.75" width="100" height="105" as="geometry" />
        </mxCell>
        <mxCell id="62" value="&lt;div style=&#39;width: 93.0px;height:auto;word-break: break-word;&#39;&gt;&lt;div align=&quot;center&quot;&gt;&lt;span style=&quot;font-family:Arial;font-size:12px; line-height: normal;&quot;&gt;SecurityHub&lt;span style=&quot;text-decoration:none; line-height: normal;&quot;&gt;&lt;br /&gt;&lt;/span&gt;&lt;/span&gt;&lt;/div&gt;&lt;div align=&quot;center&quot;&gt;&lt;span style=&quot;font-family:Arial;font-size:12px; line-height: normal;&quot;&gt;Tenable&lt;/span&gt;&lt;/div&gt;&lt;div align=&quot;center&quot;&gt;&lt;span style=&quot;font-family:Arial;font-size:12px; line-height: normal;&quot;&gt;SysdigSecure&lt;/span&gt;&lt;/div&gt;&lt;/div&gt;" style="shape=document;size=0.2;shadow=0;strokeWidth=2;fillColor=#FFFFFF;strokeColor=#333333;opacity=100.0;html=1;nl2Br=0;verticalAlign=middle;align=center;spacingLeft=2.0;spacingRight=0;whiteSpace=wrap;gliffyId=445;" parent="2" vertex="1">
          <mxGeometry x="1230" y="517.25" width="100" height="105" as="geometry" />
        </mxCell>
        <mxCell id="63" style="group;gliffyId=433;" parent="2" vertex="1">
          <mxGeometry x="827.5" y="210" width="100" height="100" as="geometry" />
        </mxCell>
        <mxCell id="64" value="&lt;div style=&#39;width: 74.333336px;height:auto;word-break: break-word;&#39;&gt;&lt;div align=&quot;center&quot;&gt;&lt;span style=&quot;font-family:Arial;text-decoration:none;font-size:12px; line-height: 0;&quot;&gt;&lt;span style=&quot;text-decoration:none; line-height: normal;&quot;&gt;Deploy latest artefacts to CI and run CI tests&lt;br /&gt;&lt;/span&gt;&lt;/span&gt;&lt;/div&gt;&lt;/div&gt;" style="shape=mxgraph.bpmn.task;rectStyle=rounded;size=10;taskMarker=abstract;points=[[0.25,0,0],[0.5,0,0],[0.75,0,0],[1,0.25,0],[1,0.5,0],[1,0.75,0],[0.75,1,0],[0.5,1,0],[0.25,1,0],[0,0.75,0],[0,0.5,0],[0,0.25,0]];shadow=0;strokeWidth=1;fillColor=#b6d7a8;strokeColor=#b6d7a8;opacity=100.0;html=1;nl2Br=0;verticalAlign=middle;align=center;spacingLeft=1.3333334;spacingRight=0;whiteSpace=wrap;gliffyId=347;" parent="63" vertex="1">
          <mxGeometry y="30" width="80" height="70" as="geometry" />
        </mxCell>
        <mxCell id="65" value="&lt;div style=&#39;width: 35.22222px;height:auto;word-break: break-word;&#39;&gt;&lt;div align=&quot;center&quot;&gt;&lt;span style=&quot;font-family:Arial;color:#ffffff;text-decoration:none;font-size:12px; line-height: 0;&quot;&gt;&lt;span style=&quot;text-decoration:none; line-height: normal;&quot;&gt;build&lt;/span&gt;&lt;/span&gt;&lt;/div&gt; &lt;div align=&quot;center&quot;&gt;&lt;span style=&quot;font-family:Arial;color:#ffffff;text-decoration:none;font-size:12px; line-height: 0;&quot;&gt;&lt;span style=&quot;text-decoration:none; line-height: normal;&quot;&gt;server&lt;/span&gt;&lt;/span&gt;&lt;/div&gt;&lt;/div&gt;" style="shape=ellipse;perimeter=ellipsePerimeter;shadow=0;strokeWidth=2;fillColor=#1155cc;strokeColor=#1155cc;opacity=100.0;html=1;nl2Br=0;verticalAlign=middle;align=center;spacingLeft=0.8888889;spacingRight=0;whiteSpace=wrap;gliffyId=388;" parent="63" vertex="1">
          <mxGeometry x="60" width="40" height="40" as="geometry" />
        </mxCell>
        <mxCell id="66" style="group;gliffyId=434;" parent="2" vertex="1">
          <mxGeometry x="823.75" y="320" width="107.52577209472656" height="93" as="geometry" />
        </mxCell>
        <mxCell id="67" value="&lt;div style=&#39;width: 74.333336px;height:auto;word-break: break-word;&#39;&gt;&lt;div align=&quot;center&quot;&gt;&lt;span style=&quot;font-family:Arial;text-decoration:none;font-size:12px; line-height: 0;&quot;&gt;&lt;span style=&quot;text-decoration:none; line-height: normal;&quot;&gt;Deploy artefacts to environment and run tests&lt;br /&gt;&lt;/span&gt;&lt;/span&gt;&lt;/div&gt;&lt;/div&gt;" style="shape=mxgraph.bpmn.task;rectStyle=rounded;size=10;taskMarker=abstract;points=[[0.25,0,0],[0.5,0,0],[0.75,0,0],[1,0.25,0],[1,0.5,0],[1,0.75,0],[0.75,1,0],[0.5,1,0],[0.25,1,0],[0,0.75,0],[0,0.5,0],[0,0.25,0]];shadow=0;strokeWidth=1;fillColor=#c27ba0;strokeColor=#c27ba0;opacity=100.0;html=1;nl2Br=0;verticalAlign=middle;align=center;spacingLeft=1.3333334;spacingRight=0;whiteSpace=wrap;gliffyId=350;" parent="66" vertex="1">
          <mxGeometry y="23" width="80" height="70" as="geometry" />
        </mxCell>
        <mxCell id="68" value="&lt;div style=&#39;width: 35.22222px;height:auto;word-break: break-word;&#39;&gt;&lt;div align=&quot;center&quot;&gt;&lt;span style=&quot;font-family:Arial;color:#ffffff;text-decoration:none;font-size:12px; line-height: 0;&quot;&gt;&lt;span style=&quot;text-decoration:none; line-height: normal;&quot;&gt;build&lt;/span&gt;&lt;/span&gt;&lt;/div&gt; &lt;div align=&quot;center&quot;&gt;&lt;span style=&quot;font-family:Arial;color:#ffffff;text-decoration:none;font-size:12px; line-height: 0;&quot;&gt;&lt;span style=&quot;text-decoration:none; line-height: normal;&quot;&gt;server&lt;/span&gt;&lt;/span&gt;&lt;/div&gt;&lt;/div&gt;" style="shape=ellipse;perimeter=ellipsePerimeter;shadow=0;strokeWidth=2;fillColor=#1155cc;strokeColor=#1155cc;opacity=100.0;html=1;nl2Br=0;verticalAlign=middle;align=center;spacingLeft=0.8888889;spacingRight=0;whiteSpace=wrap;gliffyId=386;" parent="66" vertex="1">
          <mxGeometry x="67.52577209472656" width="40" height="40" as="geometry" />
        </mxCell>
        <mxCell id="69" style="shape=filledEdge;strokeWidth=2;strokeColor=#a4c2f4;fillColor=none;startArrow=none;startFill=0;startSize=6;endArrow=block;endFill=1;endSize=6;rounded=1;gliffyId=441;edgeStyle=orthogonalEdgeStyle;" parent="2" source="72" target="57" edge="1">
          <mxGeometry width="322" height="381" relative="1" as="geometry">
            <Array as="points">
              <mxPoint x="907.5" y="499.5" />
              <mxPoint x="1130" y="499.5" />
              <mxPoint x="1130" y="113.5" />
              <mxPoint x="1090" y="113.5" />
            </Array>
          </mxGeometry>
        </mxCell>
        <mxCell id="70" style="shape=filledEdge;strokeWidth=2;strokeColor=#000000;fillColor=none;startArrow=none;startFill=0;startSize=6;endArrow=block;endFill=1;endSize=6;rounded=1;gliffyId=442;edgeStyle=orthogonalEdgeStyle;" parent="2" source="37" target="72" edge="1">
          <mxGeometry width="174" height="36" relative="1" as="geometry">
            <Array as="points">
              <mxPoint x="695.75" y="575" />
              <mxPoint x="867.5" y="575" />
              <mxPoint x="867.5" y="534.5" />
            </Array>
          </mxGeometry>
        </mxCell>
        <mxCell id="71" style="group;gliffyId=444;" parent="2" vertex="1">
          <mxGeometry x="827.5" y="440" width="100" height="94.5" as="geometry" />
        </mxCell>
        <mxCell id="72" value="&lt;div style=&#39;width: 74.333336px;height:auto;word-break: break-word;&#39;&gt;&lt;div align=&quot;center&quot;&gt;&lt;span style=&quot;font-family:Arial;text-decoration:none;font-size:12px; line-height: 0;&quot;&gt;&lt;span style=&quot;text-decoration:none; line-height: normal;&quot;&gt;semver tag artefacts &amp;amp; deploy to production&lt;br /&gt;&lt;/span&gt;&lt;/span&gt;&lt;/div&gt;&lt;/div&gt;" style="shape=mxgraph.bpmn.task;rectStyle=rounded;size=10;taskMarker=abstract;points=[[0.25,0,0],[0.5,0,0],[0.75,0,0],[1,0.25,0],[1,0.5,0],[1,0.75,0],[0.75,1,0],[0.5,1,0],[0.25,1,0],[0,0.75,0],[0,0.5,0],[0,0.25,0]];shadow=0;strokeWidth=1;fillColor=#a4c2f4;strokeColor=#a4c2f4;opacity=100.0;html=1;nl2Br=0;verticalAlign=middle;align=center;spacingLeft=1.3333334;spacingRight=0;whiteSpace=wrap;gliffyId=439;" parent="71" vertex="1">
          <mxGeometry y="24.5" width="80" height="70" as="geometry" />
        </mxCell>
        <mxCell id="73" value="&lt;div style=&#39;width: 35.22222px;height:auto;word-break: break-word;&#39;&gt;&lt;div align=&quot;center&quot;&gt;&lt;span style=&quot;font-family:Arial;color:#ffffff;text-decoration:none;font-size:12px; line-height: 0;&quot;&gt;&lt;span style=&quot;text-decoration:none; line-height: normal;&quot;&gt;build&lt;/span&gt;&lt;/span&gt;&lt;/div&gt; &lt;div align=&quot;center&quot;&gt;&lt;span style=&quot;font-family:Arial;color:#ffffff;text-decoration:none;font-size:12px; line-height: 0;&quot;&gt;&lt;span style=&quot;text-decoration:none; line-height: normal;&quot;&gt;server&lt;/span&gt;&lt;/span&gt;&lt;/div&gt;&lt;/div&gt;" style="shape=ellipse;perimeter=ellipsePerimeter;shadow=0;strokeWidth=2;fillColor=#1155cc;strokeColor=#1155cc;opacity=100.0;html=1;nl2Br=0;verticalAlign=middle;align=center;spacingLeft=0.8888889;spacingRight=0;whiteSpace=wrap;gliffyId=437;" parent="71" vertex="1">
          <mxGeometry x="60" width="40" height="40" as="geometry" />
        </mxCell>
        <mxCell id="74" style="shape=filledEdge;strokeWidth=2;strokeColor=#000000;fillColor=none;startArrow=none;startFill=0;startSize=6;endArrow=none;endFill=0;endSize=6;rounded=0;dashed=1;fixDash=1;dashPattern=2.0 2.0;gliffyId=447;exitX=0.5;exitY=1.0;exitPerimeter=0;entryX=0.5;entryY=0.0;entryPerimeter=0;" parent="2" source="59" target="29" edge="1">
          <mxGeometry width="78" height="46" relative="1" as="geometry">
            <Array as="points">
              <mxPoint x="1280" y="220.25" />
              <mxPoint x="1200" y="246.25" />
            </Array>
          </mxGeometry>
        </mxCell>
        <mxCell id="75" style="shape=filledEdge;strokeWidth=2;strokeColor=#000000;fillColor=none;startArrow=none;startFill=0;startSize=6;endArrow=none;endFill=0;endSize=6;rounded=0;dashed=1;fixDash=1;dashPattern=2.0 2.0;gliffyId=448;exitX=0.5;exitY=1.0;exitPerimeter=0;entryX=0.5;entryY=0.0;entryPerimeter=0;" parent="2" source="59" target="31" edge="1">
          <mxGeometry width="67" height="23" relative="1" as="geometry">
            <Array as="points">
              <mxPoint x="1280" y="220.25" />
              <mxPoint x="1350" y="246.25" />
            </Array>
          </mxGeometry>
        </mxCell>
        <mxCell id="76" style="shape=filledEdge;strokeWidth=2;strokeColor=#000000;fillColor=none;startArrow=none;startFill=0;startSize=6;endArrow=none;endFill=0;endSize=6;rounded=0;dashed=1;fixDash=1;dashPattern=2.0 2.0;gliffyId=449;exitX=0.5;exitY=0.0;exitPerimeter=0;entryX=0.5;entryY=1.0;entryPerimeter=0;" parent="2" source="60" target="26" edge="1">
          <mxGeometry width="94" height="44" relative="1" as="geometry">
            <Array as="points">
              <mxPoint x="1280" y="423.25" />
              <mxPoint x="1180" y="375.25" />
            </Array>
          </mxGeometry>
        </mxCell>
        <mxCell id="77" style="shape=filledEdge;strokeWidth=2;strokeColor=#000000;fillColor=none;startArrow=none;startFill=0;startSize=6;endArrow=none;endFill=0;endSize=6;rounded=0;dashed=1;fixDash=1;dashPattern=2.0 2.0;gliffyId=450;exitX=0.5;exitY=1.0;exitPerimeter=0;" parent="2" source="33" edge="1">
          <mxGeometry width="84" height="50" relative="1" as="geometry">
            <mxPoint x="1280" y="420.25" as="targetPoint" />
            <Array as="points">
              <mxPoint x="1370" y="375.25" />
            </Array>
          </mxGeometry>
        </mxCell>
        <mxCell id="78" style="shape=filledEdge;strokeWidth=2;strokeColor=#000000;fillColor=none;startArrow=none;startFill=0;startSize=6;endArrow=none;endFill=0;endSize=6;rounded=0;dashed=1;fixDash=1;dashPattern=2.0 2.0;gliffyId=451;edgeStyle=orthogonalEdgeStyle;" parent="2" source="27" edge="1">
          <mxGeometry width="7" height="42" relative="1" as="geometry">
            <mxPoint x="1280" y="420.25" as="targetPoint" />
            <Array as="points">
              <mxPoint x="1280" y="375.25" />
            </Array>
          </mxGeometry>
        </mxCell>
        <mxCell id="79" style="shape=filledEdge;strokeWidth=2;strokeColor=#000000;fillColor=none;startArrow=none;startFill=0;startSize=6;endArrow=none;endFill=0;endSize=6;rounded=0;dashed=1;fixDash=1;dashPattern=2.0 2.0;gliffyId=452;edgeStyle=orthogonalEdgeStyle;" parent="2" source="61" target="59" edge="1">
          <mxGeometry width="5" height="45" relative="1" as="geometry">
            <Array as="points">
              <mxPoint x="1280" y="122.75" />
              <mxPoint x="1280" y="170.25" />
            </Array>
          </mxGeometry>
        </mxCell>
        <mxCell id="80" style="shape=filledEdge;strokeWidth=2;strokeColor=#000000;fillColor=none;startArrow=none;startFill=0;startSize=6;endArrow=none;endFill=0;endSize=6;rounded=0;dashed=1;fixDash=1;dashPattern=2.0 2.0;gliffyId=453;edgeStyle=orthogonalEdgeStyle;" parent="2" source="60" target="62" edge="1">
          <mxGeometry width="1" height="42" relative="1" as="geometry">
            <Array as="points">
              <mxPoint x="1280" y="473.25" />
              <mxPoint x="1280" y="517.25" />
            </Array>
          </mxGeometry>
        </mxCell>
        <mxCell id="81" style="group;gliffyId=460;" parent="2" vertex="1">
          <mxGeometry x="862.5" y="52.5" width="105" height="97.5" as="geometry" />
        </mxCell>
        <mxCell id="82" value="&lt;div style=&#39;width: 74.333336px;height:auto;word-break: break-word;&#39;&gt;&lt;div align=&quot;center&quot;&gt;&lt;span style=&quot;font-family:Arial;text-decoration:none;font-size:12px; line-height: 0;&quot;&gt;&lt;span style=&quot;text-decoration:none; line-height: normal;&quot;&gt;build &amp;amp; test &amp;amp; release into artifactory&lt;br /&gt;&lt;/span&gt;&lt;/span&gt;&lt;/div&gt;&lt;/div&gt;" style="shape=mxgraph.bpmn.task;rectStyle=rounded;size=10;taskMarker=abstract;points=[[0.25,0,0],[0.5,0,0],[0.75,0,0],[1,0.25,0],[1,0.5,0],[1,0.75,0],[0.75,1,0],[0.5,1,0],[0.25,1,0],[0,0.75,0],[0,0.5,0],[0,0.25,0]];shadow=0;strokeWidth=1;fillColor=#FFFFFF;strokeColor=#000000;opacity=100.0;html=1;nl2Br=0;verticalAlign=middle;align=center;spacingLeft=1.3333334;spacingRight=0;whiteSpace=wrap;gliffyId=122;" parent="81" vertex="1">
          <mxGeometry y="27.5" width="80" height="70" as="geometry" />
        </mxCell>
        <mxCell id="83" value="&lt;div style=&#39;width: 35.22222px;height:auto;word-break: break-word;&#39;&gt;&lt;div align=&quot;center&quot;&gt;&lt;span style=&quot;font-family:Arial;color:#ffffff;text-decoration:none;font-size:12px; line-height: 0;&quot;&gt;&lt;span style=&quot;text-decoration:none; line-height: normal;&quot;&gt;build&lt;/span&gt;&lt;/span&gt;&lt;/div&gt; &lt;div align=&quot;center&quot;&gt;&lt;span style=&quot;font-family:Arial;color:#ffffff;text-decoration:none;font-size:12px; line-height: 0;&quot;&gt;&lt;span style=&quot;text-decoration:none; line-height: normal;&quot;&gt;server&lt;/span&gt;&lt;/span&gt;&lt;/div&gt;&lt;/div&gt;" style="shape=ellipse;perimeter=ellipsePerimeter;shadow=0;strokeWidth=2;fillColor=#1155cc;strokeColor=#1155cc;opacity=100.0;html=1;nl2Br=0;verticalAlign=middle;align=center;spacingLeft=0.8888889;spacingRight=0;whiteSpace=wrap;gliffyId=390;" parent="81" vertex="1">
          <mxGeometry x="65" width="40" height="40" as="geometry" />
        </mxCell>
        <mxCell id="DP4jfC9opxxsVcHKFIGZ-85" value="Dev" style="image;html=1;image=img/lib/clip_art/people/Worker_Black_128x128.png" parent="2" vertex="1">
          <mxGeometry x="530" y="6" width="60" height="70" as="geometry" />
        </mxCell>
        <mxCell id="DP4jfC9opxxsVcHKFIGZ-86" value="Dev/Engineer" style="image;html=1;image=img/lib/clip_art/people/Worker_Woman_Black_128x128.png" parent="2" vertex="1">
          <mxGeometry x="12" y="528.25" width="60" height="70" as="geometry" />
        </mxCell>
        <mxCell id="DP4jfC9opxxsVcHKFIGZ-87" value="Dev" style="image;html=1;image=img/lib/clip_art/people/Worker_Woman_128x128.png;" parent="2" vertex="1">
          <mxGeometry x="12" y="76" width="60" height="70" as="geometry" />
        </mxCell>
        <mxCell id="DP4jfC9opxxsVcHKFIGZ-88" value="Review" style="image;html=1;image=img/lib/clip_art/people/Worker_Man_128x128.png" parent="2" vertex="1">
          <mxGeometry x="510" y="528.25" width="58" height="83" as="geometry" />
        </mxCell>
        <mxCell id="37" value="&lt;div style=&#39;width: 74.333336px;height:auto;word-break: break-word;&#39;&gt;&lt;div align=&quot;center&quot;&gt;&lt;span style=&quot;font-family:Arial;text-decoration:none;font-size:12px; line-height: 0;&quot;&gt;&lt;span style=&quot;text-decoration:none; line-height: normal;&quot;&gt;Environment manifest repo merged to master&lt;br /&gt;&lt;/span&gt;&lt;/span&gt;&lt;/div&gt;&lt;/div&gt;" style="shape=mxgraph.bpmn.task;rectStyle=rounded;size=10;taskMarker=abstract;points=[[0.25,0,0],[0.5,0,0],[0.75,0,0],[1,0.25,0],[1,0.5,0],[1,0.75,0],[0.75,1,0],[0.5,1,0],[0.25,1,0],[0,0.75,0],[0,0.5,0],[0,0.25,0]];shadow=0;strokeWidth=1;fillColor=#FFFFFF;strokeColor=#000000;opacity=100.0;html=1;nl2Br=0;verticalAlign=middle;align=center;spacingLeft=1.3333334;spacingRight=0;whiteSpace=wrap;gliffyId=94;" parent="2" vertex="1">
          <mxGeometry x="615.75" y="540" width="80" height="70" as="geometry" />
        </mxCell>
        <mxCell id="38" value="&lt;div style=&#39;width: 74.333336px;height:auto;word-break: break-word;&#39;&gt;&lt;div align=&quot;center&quot;&gt;&lt;span style=&quot;font-family:Arial;text-decoration:none;font-size:12px; line-height: 0;&quot;&gt;&lt;span style=&quot;text-decoration:none; line-height: normal;&quot;&gt;Edit&amp;nbsp;environment manifest&lt;br /&gt;&lt;/span&gt;&lt;/span&gt;&lt;/div&gt;&lt;/div&gt;" style="shape=mxgraph.bpmn.task;rectStyle=rounded;size=10;taskMarker=abstract;points=[[0.25,0,0],[0.5,0,0],[0.75,0,0],[1,0.25,0],[1,0.5,0],[1,0.75,0],[0.75,1,0],[0.5,1,0],[0.25,1,0],[0,0.75,0],[0,0.5,0],[0,0.25,0]];shadow=0;strokeWidth=1;fillColor=#FFFFFF;strokeColor=#000000;opacity=100.0;html=1;nl2Br=0;verticalAlign=middle;align=center;spacingLeft=1.3333334;spacingRight=0;whiteSpace=wrap;gliffyId=101;" parent="2" vertex="1">
          <mxGeometry x="270" y="540" width="80" height="70" as="geometry" />
        </mxCell>
        <mxCell id="39" value="&lt;div style=&#39;width: 53.0px;height:auto;word-break: break-word;&#39;&gt;&lt;div align=&quot;center&quot;&gt;&lt;span style=&quot;font-family:Arial;text-decoration:none;font-size:12px; line-height: 0;&quot;&gt;&lt;span style=&quot;text-decoration:none; line-height: normal;&quot;&gt;PR&lt;br /&gt;&lt;/span&gt;&lt;/span&gt;&lt;/div&gt;&lt;/div&gt;" style="shape=rhombus;perimeter=rhombusPerimeter;shadow=0;strokeWidth=2;fillColor=#FFFFFF;strokeColor=#333333;opacity=100.0;html=1;nl2Br=0;verticalAlign=middle;align=center;spacingLeft=8.0;spacingRight=6;whiteSpace=wrap;gliffyId=99;" parent="2" vertex="1">
          <mxGeometry x="400" y="550" width="60" height="50" as="geometry" />
        </mxCell>
        <mxCell id="40" style="shape=filledEdge;strokeWidth=2;strokeColor=#000000;fillColor=none;startArrow=none;startFill=0;startSize=6;endArrow=block;endFill=1;endSize=6;rounded=1;gliffyId=98;edgeStyle=orthogonalEdgeStyle;" parent="2" source="38" target="39" edge="1">
          <mxGeometry width="51" height="2" relative="1" as="geometry">
            <Array as="points">
              <mxPoint x="350" y="575" />
              <mxPoint x="366.66668701171875" y="575" />
              <mxPoint x="383.3333435058594" y="575" />
              <mxPoint x="400" y="575" />
            </Array>
          </mxGeometry>
        </mxCell>
        <mxCell id="41" style="shape=filledEdge;strokeWidth=2;strokeColor=#000000;fillColor=none;startArrow=none;startFill=0;startSize=6;endArrow=block;endFill=1;endSize=6;rounded=1;gliffyId=104;edgeStyle=orthogonalEdgeStyle;" parent="2" target="37" edge="1">
          <mxGeometry width="123" height="28" relative="1" as="geometry">
            <Array as="points">
              <mxPoint x="564.8794555664062" y="575" />
              <mxPoint x="581.8363037109375" y="575" />
              <mxPoint x="598.7931518554688" y="575" />
              <mxPoint x="615.75" y="575" />
            </Array>
            <mxPoint x="565" y="575" as="sourcePoint" />
          </mxGeometry>
        </mxCell>
        <mxCell id="42" value="&lt;div style=&#39;width: 74.333336px;height:auto;word-break: break-word;&#39;&gt;&lt;div align=&quot;center&quot;&gt;&lt;span style=&quot;font-family:Arial;text-decoration:none;font-size:12px; line-height: 0;&quot;&gt;&lt;span style=&quot;text-decoration:none; line-height: normal;&quot;&gt;query for versions on downstream environment&lt;br /&gt;&lt;/span&gt;&lt;/span&gt;&lt;/div&gt;&lt;/div&gt;" style="shape=mxgraph.bpmn.task;rectStyle=rounded;size=10;taskMarker=abstract;points=[[0.25,0,0],[0.5,0,0],[0.75,0,0],[1,0.25,0],[1,0.5,0],[1,0.75,0],[0.75,1,0],[0.5,1,0],[0.25,1,0],[0,0.75,0],[0,0.5,0],[0,0.25,0]];shadow=0;strokeWidth=1;fillColor=#FFFFFF;strokeColor=#000000;opacity=100.0;html=1;nl2Br=0;verticalAlign=middle;align=center;spacingLeft=1.3333334;spacingRight=0;whiteSpace=wrap;gliffyId=144;" parent="2" vertex="1">
          <mxGeometry x="135" y="538.5" width="80" height="70" as="geometry" />
        </mxCell>
        <mxCell id="43" style="shape=filledEdge;strokeWidth=2;strokeColor=#000000;fillColor=none;startArrow=none;startFill=0;startSize=6;endArrow=block;endFill=1;endSize=6;rounded=1;gliffyId=174;edgeStyle=orthogonalEdgeStyle;" parent="2" target="42" edge="1">
          <mxGeometry width="131" height="1" relative="1" as="geometry">
            <Array as="points">
              <mxPoint x="62" y="563.5" />
              <mxPoint x="98.5" y="563.5" />
              <mxPoint x="98.5" y="573.5" />
              <mxPoint x="135" y="573.5" />
            </Array>
            <mxPoint x="62" y="563.5" as="sourcePoint" />
          </mxGeometry>
        </mxCell>
        <mxCell id="44" style="shape=filledEdge;strokeWidth=2;strokeColor=#000000;fillColor=none;startArrow=none;startFill=0;startSize=6;endArrow=block;endFill=1;endSize=6;rounded=1;gliffyId=175;edgeStyle=orthogonalEdgeStyle;" parent="2" source="42" target="38" edge="1">
          <mxGeometry width="599" height="193" relative="1" as="geometry">
            <Array as="points">
              <mxPoint x="215" y="573.5" />
              <mxPoint x="233.34014892578125" y="573.5" />
              <mxPoint x="251.6802978515625" y="573.5" />
              <mxPoint x="270.02044677734375" y="573.5" />
            </Array>
          </mxGeometry>
        </mxCell>
        <mxCell id="45" style="shape=filledEdge;strokeWidth=2;strokeColor=#000000;fillColor=none;startArrow=none;startFill=0;startSize=6;endArrow=block;endFill=1;endSize=6;rounded=1;gliffyId=189;edgeStyle=orthogonalEdgeStyle;" parent="2" source="39" edge="1">
          <mxGeometry width="21" height="126" relative="1" as="geometry">
            <Array as="points">
              <mxPoint x="460" y="575" />
              <mxPoint x="475.0452880859375" y="575" />
              <mxPoint x="490.0906066894531" y="575" />
              <mxPoint x="505.13592529296875" y="575" />
            </Array>
            <mxPoint x="505" y="575" as="targetPoint" />
          </mxGeometry>
        </mxCell>
        <mxCell id="46" value="&lt;div style=&#39;width: 35.22222px;height:auto;word-break: break-word;&#39;&gt;&lt;div align=&quot;center&quot;&gt;&lt;span style=&quot;font-family:Arial;color:rgb(255, 255, 255);font-size:12px; line-height: normal;&quot;&gt;repo&lt;span style=&quot;text-decoration:none; line-height: normal;&quot;&gt;&lt;br /&gt;&lt;/span&gt;&lt;/span&gt;&lt;/div&gt;&lt;/div&gt;" style="shape=ellipse;perimeter=ellipsePerimeter;shadow=0;strokeWidth=2;fillColor=#ff9900;strokeColor=#ff9900;opacity=100.0;html=1;nl2Br=0;verticalAlign=middle;align=center;spacingLeft=0.8888889;spacingRight=0;whiteSpace=wrap;gliffyId=400;" parent="2" vertex="1">
          <mxGeometry x="675.75" y="510" width="40" height="40" as="geometry" />
        </mxCell>
        <mxCell id="47" value="&lt;div style=&#39;width: 35.22222px;height:auto;word-break: break-word;&#39;&gt;&lt;div align=&quot;center&quot;&gt;&lt;span style=&quot;font-family:Arial;color:rgb(255, 255, 255);font-size:12px; line-height: normal;&quot;&gt;repo&lt;span style=&quot;text-decoration:none; line-height: normal;&quot;&gt;&lt;br /&gt;&lt;/span&gt;&lt;/span&gt;&lt;/div&gt;&lt;/div&gt;" style="shape=ellipse;perimeter=ellipsePerimeter;shadow=0;strokeWidth=2;fillColor=#ff9900;strokeColor=#ff9900;opacity=100.0;html=1;nl2Br=0;verticalAlign=middle;align=center;spacingLeft=0.8888889;spacingRight=0;whiteSpace=wrap;gliffyId=404;" parent="2" vertex="1">
          <mxGeometry x="330" y="518.5" width="40" height="40" as="geometry" />
        </mxCell>
        <mxCell id="DRjgZrffhy7Aq12jiZPh-83" value="devlop/feature-JIRAID" style="text;html=1;strokeColor=none;fillColor=none;align=center;verticalAlign=middle;whiteSpace=wrap;rounded=0;" vertex="1" parent="2">
          <mxGeometry x="42" y="30" width="150" height="30" as="geometry" />
        </mxCell>
        <mxCell id="52" value="&lt;div style=&#39;width: 35.22222px;height:auto;word-break: break-word;&#39;&gt;&lt;div align=&quot;center&quot;&gt;&lt;span style=&quot;font-family:Arial;color:#ffffff;text-decoration:none;font-size:12px; line-height: 0;&quot;&gt;&lt;span style=&quot;text-decoration:none; line-height: normal;&quot;&gt;build&lt;/span&gt;&lt;/span&gt;&lt;/div&gt; &lt;div align=&quot;center&quot;&gt;&lt;span style=&quot;font-family:Arial;color:#ffffff;text-decoration:none;font-size:12px; line-height: 0;&quot;&gt;&lt;span style=&quot;text-decoration:none; line-height: normal;&quot;&gt;server&lt;/span&gt;&lt;/span&gt;&lt;/div&gt;&lt;/div&gt;" style="shape=ellipse;perimeter=ellipsePerimeter;shadow=0;strokeWidth=2;fillColor=#1155cc;strokeColor=#1155cc;opacity=100.0;html=1;nl2Br=0;verticalAlign=middle;align=center;spacingLeft=0.8888889;spacingRight=0;whiteSpace=wrap;gliffyId=382;" parent="2" vertex="1">
          <mxGeometry x="330" y="52.5" width="40" height="40" as="geometry" />
        </mxCell>
      </root>
    </mxGraphModel>
  </diagram>
</mxfile>
